<?xml version="1.0" encoding="UTF-8" ?>
<!DOCTYPE svg PUBLIC "-//W3C//DTD SVG 1.1//EN" "http://www.w3.org/Graphics/SVG/1.1/DTD/svg11.dtd">
<svg width="355pt" height="370pt" viewBox="0 0 355 370" version="1.1" xmlns="http://www.w3.org/2000/svg">
<g id="#000000ff">
<path fill="#000000" opacity="1.00" d=" M 0.00 74.06 C 63.96 49.28 128.00 24.70 192.00 0.01 C 246.33 29.35 300.73 58.56 355.00 87.99 L 355.00 296.00 C 323.14 308.23 291.26 320.42 259.41 332.67 C 259.48 316.41 259.36 300.16 259.47 283.90 C 268.28 279.35 274.04 269.76 273.89 259.85 C 281.24 255.58 288.64 251.36 296.16 247.42 C 299.22 248.25 301.84 250.24 304.97 250.89 C 315.25 253.58 326.95 248.78 332.26 239.56 C 336.05 233.51 336.62 225.84 334.74 219.06 C 330.94 206.37 315.85 198.19 303.27 202.83 C 295.48 205.26 289.24 211.75 286.93 219.56 C 286.30 222.40 286.07 225.32 285.62 228.20 C 278.01 232.30 270.48 236.57 262.93 240.79 C 261.81 240.20 260.68 239.64 259.54 239.11 C 259.32 230.39 259.42 221.66 259.48 212.94 C 268.10 208.40 274.23 198.90 273.73 189.04 C 272.84 176.77 262.29 166.19 250.05 165.18 C 236.65 164.36 222.92 176.07 223.95 189.99 C 222.91 199.69 229.19 208.52 237.45 212.97 C 237.45 221.62 237.65 230.28 237.33 238.92 C 230.38 242.77 224.35 249.69 224.05 257.94 C 223.79 263.24 223.72 268.96 226.70 273.58 C 229.11 278.07 233.16 281.38 237.46 283.97 C 237.55 302.99 237.41 322.01 237.53 341.03 C 218.08 348.51 198.62 355.96 179.16 363.42 C 173.66 365.60 168.04 367.47 162.68 370.00 L 162.11 370.00 C 161.85 300.67 162.07 231.34 162.00 162.01 C 215.78 141.37 269.57 120.78 323.34 100.13 C 279.56 76.74 235.78 53.35 191.97 30.01 C 138.00 50.69 84.00 71.31 30.04 92.00 C 69.00 115.38 108.03 138.65 147.00 162.02 C 146.99 231.34 147.02 300.67 146.99 370.00 L 146.95 370.00 C 98.00 340.25 48.92 310.73 0.00 280.93 L 0.00 103.01 C 9.59 99.39 19.30 96.09 28.82 92.34 C 28.85 92.12 28.91 91.70 28.94 91.49 C 19.40 85.55 9.76 79.74 0.00 74.18 L 0.00 74.06 M 23.38 142.07 C 23.37 145.29 23.37 148.52 23.36 151.74 C 26.52 153.91 29.71 156.05 32.88 158.20 C 32.87 189.88 32.88 221.55 32.87 253.22 C 29.70 251.11 26.57 248.94 23.37 246.88 C 23.36 250.10 23.37 253.32 23.38 256.55 C 36.12 265.09 48.74 273.82 61.55 282.26 C 61.58 279.04 61.57 275.82 61.53 272.60 C 58.34 270.48 55.17 268.33 52.00 266.17 C 52.01 253.51 51.99 240.85 52.01 228.19 C 67.93 238.86 83.72 249.72 99.68 260.34 C 99.69 257.23 99.69 254.11 99.70 251.00 C 102.87 253.09 106.00 255.24 109.17 257.35 C 109.19 254.21 109.19 251.08 109.19 247.95 C 112.33 250.05 115.43 252.20 118.62 254.22 C 118.62 244.65 118.65 235.07 118.60 225.49 C 115.45 223.40 112.31 221.27 109.19 219.13 C 109.18 216.01 109.18 212.89 109.22 209.78 C 106.07 207.53 102.82 205.44 99.66 203.20 C 99.71 199.99 99.70 196.79 99.64 193.59 C 74.18 176.48 48.82 159.21 23.38 142.07 Z" />
<path fill="#000000" opacity="1.00" d=" M 52.01 171.17 C 64.71 179.69 77.37 188.30 90.05 196.87 C 90.07 200.00 90.06 203.13 90.03 206.26 C 93.19 208.47 96.39 210.61 99.60 212.75 C 99.65 222.26 99.62 231.77 99.61 241.27 C 96.39 239.21 93.24 237.03 90.07 234.90 C 90.06 238.03 90.06 241.17 90.04 244.30 C 77.35 235.81 64.76 227.15 52.05 218.68 C 51.94 202.85 52.02 187.01 52.01 171.17 Z" />
<path fill="#000000" opacity="1.00" d=" M 244.80 180.05 C 251.42 177.40 259.30 182.91 259.42 189.95 C 259.90 196.88 252.54 203.03 245.83 201.01 C 240.66 199.73 236.83 194.41 237.55 189.07 C 238.03 184.98 241.05 181.56 244.80 180.05 Z" />
<path fill="#000000" opacity="1.00" d=" M 308.98 215.93 C 315.80 214.26 322.95 220.99 321.68 227.94 C 321.28 236.12 310.19 240.64 304.14 235.18 C 296.93 230.05 299.97 216.82 308.98 215.93 Z" />
<path fill="#000000" opacity="1.00" d=" M 245.83 251.11 C 251.38 249.35 257.63 253.34 258.94 258.89 C 260.31 263.97 256.97 269.67 252.15 271.47 C 248.69 271.58 244.32 272.55 241.67 269.72 C 238.63 266.91 236.33 262.20 238.44 258.21 C 239.54 254.79 242.29 251.97 245.83 251.11 Z" />
</g>
</svg>
